nColumns=19
nRows=122
DataType=double
version=3
OpenSimVersion=4.1
endheader
time	ground_force_calcn_r_vx	ground_force_calcn_r_vy	ground_force_calcn_r_vz	ground_force_calcn_r_px	ground_force_calcn_r_py	ground_force_calcn_r_pz	ground_force_calcn_r_mx	ground_force_calcn_r_my	ground_force_calcn_r_mz	ground_force_calcn_l_vx	ground_force_calcn_l_vy	ground_force_calcn_l_vz	ground_force_calcn_l_px	ground_force_calcn_l_py	ground_force_calcn_l_pz	ground_force_calcn_l_mx	ground_force_calcn_l_my	ground_force_calcn_l_mz
2.13	0	0	0	0	0	0	0	0	0	-191.834	1230.24	33.7984	1.18666	0	-0.341566	2.1589	-13.8452	-0.380368
2.14	0	0	0	0	0	0	0	0	0	-244.291	1309.2	-8.53987	1.16363	0	-0.344832	2.09621	-11.2339	0.0732787
2.15	0	0	0	0	0	0	0	0	0	-275.642	1418.04	-37.4796	1.13526	0	-0.348465	1.55555	-8.00249	0.211511
2.16	0	0	0	0	0	0	0	0	0	-261.644	1598.7	-30.7563	1.10087	0	-0.345789	0.839355	-5.12862	0.0986662
2.17	0	0	0	0	0	0	0	0	0	-199.649	1765.69	-17.266	1.06326	0	-0.343135	0.313067	-2.76875	0.0270745
2.18	0	0	0	0	0	0	0	0	0	-127.533	1839.92	-26.1074	1.02919	0	-0.344653	0.0506092	-0.730136	0.0103602
2.19	0	0	0	0	0	0	0	0	0	-69.4782	1832.98	-46.4336	0.997825	0	-0.346766	-0.0429202	1.13233	-0.0286844
2.2	0	0	0	0	0	0	0	0	0	-14.5421	1790.67	-57.7325	0.96455	0	-0.346195	-0.0229071	2.82071	-0.0909418
2.21	0	0	0	0	0	0	0	0	0	40.5366	1714.42	-60.4906	0.931286	0	-0.344747	0.10139	4.28809	-0.151298
2.22	0	0	0	0	0	0	0	0	0	83.9438	1587.05	-63.0598	0.901249	0	-0.344028	0.290895	5.49969	-0.218525
2.23	0	0	0	0	0	0	0	0	0	118.062	1415.39	-65.6572	0.871778	0	-0.343047	0.53394	6.40112	-0.296936
2.24	0	0	0	0	0	0	0	0	0	150.059	1211.72	-64.8372	0.839069	0	-0.34094	0.852648	6.88512	-0.368411
2.25	0	0	0	0	0	0	0	0	0	172.377	974.847	-60.3814	0.800845	0	-0.338819	1.20824	6.83302	-0.423233
2.26	0	0	0	0	0	0	0	0	0	180.698	719.754	-53.7982	0.754105	0	-0.338195	1.54765	6.16457	-0.460772
2.27	0	0	0	0	0	0	0	0	0	168.337	489.018	-44.7631	0.706175	0	-0.338828	1.70903	4.96473	-0.454454
2.28	0	0	0	0	0	0	0	0	0	135.274	308.979	-32.7243	0.674134	0	-0.338842	1.55461	3.55089	-0.376078
2.29	0	0	0	0	0	0	0	0	0	92.539	176.967	-20.1899	0.669209	0	-0.337171	1.18362	2.26349	-0.258238
2.3	0	0	0	0	0	0	0	0	0	52.1812	85.7773	-10.422	0.682154	0	-0.335	0.801528	1.31758	-0.160086
2.31	0	0	0	0	0	0	0	0	0	20.3917	32.6524	-4.17679	0.688805	0	-0.322679	0.53054	0.849532	-0.108669
2.32	0	0	0	0	0	0	0	0	0	3.71652	10.5684	-0.716954	0.628729	0	-0.256956	0.31079	0.883771	-0.0599545
2.33	0	0	0	0	0	0	0	0	0	0	0	0	0	0	0	0	0	0
2.34	0	0	0	0	0	0	0	0	0	0	0	0	0	0	0	0	0	0
2.35	0	0	0	0	0	0	0	0	0	0	0	0	0	0	0	0	0	0
2.36	0	0	0	0	0	0	0	0	0	0	0	0	0	0	0	0	0	0
2.37	0	0	0	0	0	0	0	0	0	0	0	0	0	0	0	0	0	0
2.38	0	0	0	0	0	0	0	0	0	0	0	0	0	0	0	0	0	0
2.39	0	0	0	0	0	0	0	0	0	0	0	0	0	0	0	0	0	0
2.4	0	0	0	0	0	0	0	0	0	0	0	0	0	0	0	0	0	0
2.41	-10.064	29.6232	-13.0334	1.30109	0	-0.295997	-0.0330076	0.097157	-0.0427464	0	0	0	0	0	0	0	0	0
2.42	-41.9634	118.237	-28.8122	1.25891	0	-0.318062	-1.20381	3.39188	-0.82654	0	0	0	0	0	0	0	0	0
2.43	-114.055	339.289	-48.759	1.24294	0	-0.318897	-2.3643	7.03328	-1.01075	0	0	0	0	0	0	0	0	0
2.44	-177.254	665.313	-61.4076	1.22846	0	-0.319417	-2.61347	9.80949	-0.905404	0	0	0	0	0	0	0	0	0
2.45	-178.709	971.309	-53.9747	1.19679	0	-0.323485	-1.92488	10.462	-0.581363	0	0	0	0	0	0	0	0	0
2.46	-194.453	1204.04	-24.7606	1.15842	0	-0.32951	-1.3624	8.43591	-0.173481	0	0	0	0	0	0	0	0	0
2.47	-241.558	1377.71	12.9693	1.12577	0	-0.333964	-0.837208	4.77497	0.0449499	0	0	0	0	0	0	0	0	0
2.48	-240.994	1554.39	40.5802	1.08933	0	-0.33662	-0.154874	0.998926	0.0260787	0	0	0	0	0	0	0	0	0
2.49	-181.067	1749.06	52.3936	1.04751	0	-0.33809	0.193518	-1.86933	-0.0559962	0	0	0	0	0	0	0	0	0
2.5	-114.259	1890.87	57.3642	1.01038	0	-0.338296	0.203622	-3.36973	-0.102229	0	0	0	0	0	0	0	0	0
2.51	-66.5763	1939.39	62.1248	0.980515	0	-0.338407	0.12728	-3.70771	-0.118769	0	0	0	0	0	0	0	0	0
2.52	-21.5229	1918.47	66.8913	0.952348	0	-0.338967	0.0391897	-3.49322	-0.121798	0	0	0	0	0	0	0	0	0
2.53	28.0233	1849.88	71.6463	0.923553	0	-0.33934	-0.0500574	-3.30439	-0.12798	0	0	0	0	0	0	0	0	0
2.54	76.2066	1736.72	75.4502	0.894519	0	-0.339526	-0.149632	-3.41005	-0.148146	0	0	0	0	0	0	0	0	0
2.55	116.57	1572.45	76.3306	0.865396	0	-0.340176	-0.274375	-3.70112	-0.179662	0	0	0	0	0	0	0	0	0
2.56	144.351	1354.35	73.7643	0.836674	0	-0.341393	-0.406622	-3.81505	-0.207786	0	0	0	0	0	0	0	0	0
2.57	158.543	1089.76	67.7916	0.808542	0	-0.342601	-0.489473	-3.36444	-0.209294	0	0	0	0	0	0	0	0	0
2.58	161.625	796.398	57.6687	0.776613	0	-0.343511	-0.439545	-2.16584	-0.156832	0	0	0	0	0	0	0	0	0
2.59	155.412	513.734	43.2125	0.735557	0	-0.343877	-0.123517	-0.408301	-0.0343441	0	0	0	0	0	0	0	0	0
2.6	130.721	289.673	27.1355	0.695129	0	-0.341562	0.58456	1.29537	0.121345	0	0	0	0	0	0	0	0	0
2.61	87.1245	141.815	14.1142	0.675978	0	-0.332221	1.42544	2.32023	0.230922	0	0	0	0	0	0	0	0	0
2.62	41.0036	59.4362	6.48382	0.705724	0	-0.306316	1.86684	2.70605	0.2952	0	0	0	0	0	0	0	0	0
2.63	13.2211	21.0856	3.08876	0.770023	0	-0.240161	1.6856	2.68828	0.393795	0	0	0	0	0	0	0	0	0
2.64	0	0	0	0	0	0	0	0	0	0	0	0	0	0	0	0	0	0
2.65	0	0	0	0	0	0	0	0	0	0	0	0	0	0	0	0	0	0
2.66	0	0	0	0	0	0	0	0	0	0	0	0	0	0	0	0	0	0
2.67	0	0	0	0	0	0	0	0	0	0	0	0	0	0	0	0	0	0
2.68	0	0	0	0	0	0	0	0	0	0	0	0	0	0	0	0	0	0
2.69	0	0	0	0	0	0	0	0	0	0	0	0	0	0	0	0	0	0
2.7	0	0	0	0	0	0	0	0	0	0	0	0	0	0	0	0	0	0
2.71	0	0	0	0	0	0	0	0	0	0	0	0	0	0	0	0	0	0
2.72	0	0	0	0	0	0	0	0	0	0	0	0	0	0	0	0	0	0
2.73	0	0	0	0	0	0	0	0	0	0	0	0	0	0	0	0	0	0
2.74	0	0	0	0	0	0	0	0	0	-4.01049	24.5705	1.33933	1.10201	0	-0.345448	0.183749	-1.12575	-0.0613644
2.75	0	0	0	0	0	0	0	0	0	-10.7087	103.002	5.24924	1.15427	0	-0.361292	0.468938	-4.51048	-0.229865
2.76	0	0	0	0	0	0	0	0	0	-30.4488	334.204	16.6661	1.15309	0	-0.36227	0.732655	-8.04158	-0.401018
2.77	0	0	0	0	0	0	0	0	0	-78.6719	761.091	35.8666	1.14605	0	-0.355948	1.06781	-10.3303	-0.486815
2.78	0	0	0	0	0	0	0	0	0	-153.129	1209.6	47.3758	1.13861	0	-0.347872	1.29951	-10.2651	-0.402048
2.79	0	0	0	0	0	0	0	0	0	-215.216	1454.02	26.2841	1.12686	0	-0.344059	1.14033	-7.70421	-0.139268
2.8	0	0	0	0	0	0	0	0	0	-244.639	1543.4	-22.741	1.10573	0	-0.346636	0.582656	-3.67591	0.0541622
2.81	0	0	0	0	0	0	0	0	0	-240.063	1645.76	-55.8632	1.07613	0	-0.34882	-0.028736	0.197	-0.00668694
2.82	0	0	0	0	0	0	0	0	0	-196.187	1799.28	-48.2467	1.04117	0	-0.346176	-0.300064	2.75197	-0.0737924
2.83	0	0	0	0	0	0	0	0	0	-122.049	1919.07	-26.4892	1.0055	0	-0.344292	-0.242525	3.81342	-0.052637
2.84	0	0	0	0	0	0	0	0	0	-55.3429	1934.08	-21.8584	0.973905	0	-0.345791	-0.114731	4.00951	-0.0453143
2.85	0	0	0	0	0	0	0	0	0	-9.034	1862.44	-31.5406	0.945182	0	-0.347249	-0.0201148	4.14686	-0.0702273
2.86	0	0	0	0	0	0	0	0	0	38.7196	1748.95	-40.3034	0.91557	0	-0.34597	0.103684	4.68337	-0.107925
2.87	0	0	0	0	0	0	0	0	0	86.7011	1594.6	-45.6935	0.886171	0	-0.343587	0.305817	5.62456	-0.161173
2.88	0	0	0	0	0	0	0	0	0	122.826	1389.75	-50.762	0.858188	0	-0.341832	0.587729	6.65004	-0.242899
2.89	0	0	0	0	0	0	0	0	0	148.718	1145.41	-53.1797	0.827834	0	-0.34031	0.947837	7.30015	-0.338935
2.9	0	0	0	0	0	0	0	0	0	166.136	878.389	-49.3816	0.789127	0	-0.338491	1.35911	7.18584	-0.403977
2.91	0	0	0	0	0	0	0	0	0	169.277	613.397	-41.0537	0.741419	0	-0.336748	1.70302	6.17112	-0.413023
2.92	0	0	0	0	0	0	0	0	0	150.35	387.611	-32.4255	0.698858	0	-0.335249	1.744	4.49613	-0.376123
2.93	0	0	0	0	0	0	0	0	0	112.547	220.156	-24.7563	0.679048	0	-0.333988	1.3744	2.6885	-0.302319
2.94	0	0	0	0	0	0	0	0	0	69.1734	110.792	-17.2161	0.694591	0	-0.329928	0.775258	1.24169	-0.192949
2.95	0	0	0	0	0	0	0	0	0	32.6475	48.2907	-9.98482	0.728163	0	-0.319631	0.252282	0.373164	-0.0771571
2.96	0	0	0	0	0	0	0	0	0	10.336	17.7435	-4.26362	0.696615	0	-0.303685	0.0108668	0.0186547	-0.00448258
2.97	0	0	0	0	0	0	0	0	0	0	0	0	0	0	0	0	0	0
2.98	0	0	0	0	0	0	0	0	0	0	0	0	0	0	0	0	0	0
2.99	0	0	0	0	0	0	0	0	0	0	0	0	0	0	0	0	0	0
3	0	0	0	0	0	0	0	0	0	0	0	0	0	0	0	0	0	0
3.01	0	0	0	0	0	0	0	0	0	0	0	0	0	0	0	0	0	0
3.02	0	0	0	0	0	0	0	0	0	0	0	0	0	0	0	0	0	0
3.03	0	0	0	0	0	0	0	0	0	0	0	0	0	0	0	0	0	0
3.04	0	0	0	0	0	0	0	0	0	0	0	0	0	0	0	0	0	0
3.05	-2.46774	10.8834	-5.87538	1.178	0	-0.220557	0.339496	-1.49727	0.808296	0	0	0	0	0	0	0	0	0
3.06	-14.5143	45.4691	-16.8887	1.20255	0	-0.278686	-0.124298	0.389392	-0.144632	0	0	0	0	0	0	0	0	0
3.07	-53.2964	170.772	-36.6566	1.17806	0	-0.28808	-1.1263	3.60888	-0.774656	0	0	0	0	0	0	0	0	0
3.08	-117.83	449.418	-61.4881	1.17207	0	-0.288793	-1.88636	7.19482	-0.984375	0	0	0	0	0	0	0	0	0
3.09	-145.987	810.405	-77.435	1.15663	0	-0.291567	-1.77177	9.83549	-0.939791	0	0	0	0	0	0	0	0	0
3.1	-124.669	1117.98	-69.8182	1.12242	0	-0.296997	-1.15157	10.3268	-0.644911	0	0	0	0	0	0	0	0	0
3.11	-149.769	1337.64	-41.0846	1.08719	0	-0.301851	-0.952029	8.50289	-0.26116	0	0	0	0	0	0	0	0	0
3.12	-199.983	1494.9	-12.1673	1.0576	0	-0.30448	-0.724146	5.41307	-0.0440581	0	0	0	0	0	0	0	0	0
3.13	-195.182	1645.22	0.293001	1.02258	0	-0.306526	-0.27346	2.30504	0.00041051	0	0	0	0	0	0	0	0	0
3.14	-140.705	1788.76	1.80142	0.983917	0	-0.307474	0.00840728	-0.106881	-0.000107637	0	0	0	0	0	0	0	0	0
3.15	-80.8968	1872.41	5.38442	0.949391	0	-0.307193	0.0703042	-1.62724	-0.00467939	0	0	0	0	0	0	0	0	0
3.16	-26.4227	1879.47	13.3053	0.917992	0	-0.307296	0.0345081	-2.45459	-0.0173767	0	0	0	0	0	0	0	0	0
3.17	31.1728	1823.36	22.8423	0.886044	0	-0.308101	-0.0498207	-2.91411	-0.0365067	0	0	0	0	0	0	0	0	0
3.18	86.9144	1711.21	33.0072	0.85286	0	-0.308991	-0.163009	-3.20939	-0.0619052	0	0	0	0	0	0	0	0	0
3.19	134.494	1542	41.8113	0.818511	0	-0.310193	-0.290863	-3.33479	-0.0904229	0	0	0	0	0	0	0	0	0
3.2	175.819	1313.39	46.4977	0.781867	0	-0.31169	-0.420093	-3.13814	-0.111099	0	0	0	0	0	0	0	0	0
3.21	210.668	1036.51	45.3531	0.740438	0	-0.313198	-0.503231	-2.47595	-0.108337	0	0	0	0	0	0	0	0	0
3.22	222.081	750.125	38.9124	0.696759	0	-0.314307	-0.410118	-1.38526	-0.0718597	0	0	0	0	0	0	0	0	0
3.23	194.972	501.023	30.588	0.661123	0	-0.313696	-0.0486208	-0.124942	-0.00762782	0	0	0	0	0	0	0	0	0
3.24	146.024	308.65	23.3694	0.637375	0	-0.309956	0.481321	1.01736	0.0770297	0	0	0	0	0	0	0	0	0
3.25	95.7607	170.252	17.2502	0.61541	0	-0.303047	1.02367	1.81997	0.184402	0	0	0	0	0	0	0	0	0
3.26	51.5364	79.3725	11.4963	0.587032	0	-0.289972	1.42336	2.19215	0.317511	0	0	0	0	0	0	0	0	0
3.27	19.4896	29.8888	6.49719	0.61453	0	-0.258244	1.51511	2.32353	0.505087	0	0	0	0	0	0	0	0	0
3.28	4.83095	10.5739	3.13666	0.948221	0	-0.19864	1.14129	2.49804	0.741024	0	0	0	0	0	0	0	0	0
3.29	0	0	0	0	0	0	0	0	0	0	0	0	0	0	0	0	0	0
3.3	0	0	0	0	0	0	0	0	0	0	0	0	0	0	0	0	0	0
3.31	0	0	0	0	0	0	0	0	0	0	0	0	0	0	0	0	0	0
3.32	0	0	0	0	0	0	0	0	0	0	0	0	0	0	0	0	0	0
3.33	0	0	0	0	0	0	0	0	0	0	0	0	0	0	0	0	0	0
3.34	0	0	0	0	0	0	0	0	0	0	0	0	0	0	0	0	0	0
